<?xml version="1.0" ?><!-- Uploaded to: SVG Repo, www.svgrepo.com, Generator: SVG Repo Mixer Tools -->
<svg width="800px" height="800px" viewBox="0 0 32 32" xmlns="http://www.w3.org/2000/svg"><title/><path d="M1,12V26H5a3,3,0,0,1,6,0H22a3,3,0,0,1,6,0h3V20l-3-2H23V12Zm12,5a1,1,0,0,1-1,1H10a1,1,0,0,1-1-1V16a1,1,0,0,1,1-1h2a1,1,0,0,1,1,1Zm7,0a1,1,0,0,1-1,1H17a1,1,0,0,1-1-1V16a1,1,0,0,1,1-1h2a1,1,0,0,1,1,1Z" style="fill: #0bf"/><path d="M29.3,3H4A3,3,0,0,0,1,6v6H30a1,1,0,0,0,1-1V4.7A1.7,1.7,0,0,0,29.3,3ZM9,8A1,1,0,0,1,8,9H6A1,1,0,0,1,5,8V7A1,1,0,0,1,6,6H8A1,1,0,0,1,9,7Zm9,0a1,1,0,0,1-1,1H15a1,1,0,0,1-1-1V7a1,1,0,0,1,1-1h2a1,1,0,0,1,1,1Zm9,0a1,1,0,0,1-1,1H24a1,1,0,0,1-1-1V7a1,1,0,0,1,1-1h2a1,1,0,0,1,1,1Z" style="fill: #0bf"/><line style="fill: none;stroke: #000000;stroke-linecap: round;stroke-linejoin: round;stroke-width: 2px" x1="21" x2="12" y1="26" y2="26"/><circle cx="8" cy="26" r="3" style="fill: none;stroke: #000000;stroke-linecap: round;stroke-linejoin: round;stroke-width: 2px"/><circle cx="25" cy="26" r="3" style="fill: none;stroke: #000000;stroke-linecap: round;stroke-linejoin: round;stroke-width: 2px"/><path d="M29,26h1a1,1,0,0,0,1-1V20l-3-2V12.3" style="fill: none;stroke: #000000;stroke-linecap: round;stroke-linejoin: round;stroke-width: 2px"/><path d="M2,12H30a1,1,0,0,0,1-1V4.7A1.7,1.7,0,0,0,29.3,3H4A3,3,0,0,0,1,6V25a1,1,0,0,0,1,1H4" style="fill: none;stroke: #000000;stroke-linecap: round;stroke-linejoin: round;stroke-width: 2px"/><polyline points="27.5 18 23 18 23 13" style="fill: none;stroke: #000000;stroke-linecap: round;stroke-linejoin: round;stroke-width: 2px"/><line style="fill: none;stroke: #000000;stroke-linecap: round;stroke-linejoin: round;stroke-width: 2px" x1="6" x2="6" y1="20.6" y2="13"/><rect height="3" rx="1" ry="1" style="fill: none;stroke: #000000;stroke-linecap: round;stroke-linejoin: round;stroke-width: 2px" width="4" x="5" y="6"/><rect height="3" rx="1" ry="1" style="fill: none;stroke: #000000;stroke-linecap: round;stroke-linejoin: round;stroke-width: 2px" width="4" x="14" y="6"/><rect height="3" rx="1" ry="1" style="fill: none;stroke: #000000;stroke-linecap: round;stroke-linejoin: round;stroke-width: 2px" width="4" x="23" y="6"/><rect height="3" rx="1" ry="1" style="fill: none;stroke: #000000;stroke-linecap: round;stroke-linejoin: round;stroke-width: 2px" width="4" x="9" y="15"/><rect height="3" rx="1" ry="1" style="fill: none;stroke: #000000;stroke-linecap: round;stroke-linejoin: round;stroke-width: 2px" width="4" x="16" y="15"/></svg>